# xmcd CD database file
#
# Track frame offsets:
#	150
#	29442
#	59121
#	74120
#	104052
#	121181
#	135532
#	150600
#	167674
#	183480
#	213431
#	229586
#
# Disc length: 3251 seconds
#
# Revision: 0
# Processed by: cddbd v1.5.2PL0 Copyright (c) Steve Scherf et al.
# Submitted via: CDex 1.51
#
DISCID=b30cb10c
DTITLE=Jacky Terrasson - Mirror
DYEAR=2007
DGENRE=Jazz
TTITLE0=Caravan
TTITLE1=Juvenile
TTITLE2=Jus a gigolo
TTITLE3=You've got a friend
TTITLE4=Little red ribbon
TTITLE5=Tragic mulatto blues
TTITLE6=America the beautiful
TTITLE7=Bluesette
TTITLE8=Cherokee
TTITLE9=Everything happens to me
TTITLE10=Mirror
TTITLE11=Go round
EXTD=YEAR: 2007
EXTT0=
EXTT1=
EXTT2=
EXTT3=
EXTT4=
EXTT5=
EXTT6=
EXTT7=
EXTT8=
EXTT9=
EXTT10=
EXTT11=
PLAYORDER=
